<svg xmlns="http://www.w3.org/2000/svg" viewBox="0 0 48 48"><path d="M45 0H3a3 3 0 0 0-3 3v33a3 3 0 0 0 3 3h15.93a5.9 5.9 0 0 1-1.37 3H17a3 3 0 0 0-3 3v2a1 1 0 0 0 1 1h18a1 1 0 0 0 1-1v-2a3 3 0 0 0-3-3h-.56a5.9 5.9 0 0 1-1.37-3H45a3 3 0 0 0 3-3V3a3 3 0 0 0-3-3zM3 2h42a1 1 0 0 1 1 1v28H2V3a1 1 0 0 1 1-1zm29 43v1H16v-1a1 1 0 0 1 1-1h14a1 1 0 0 1 1 1zm-4-3h-8a8.12 8.12 0 0 0 1-3h6a8.12 8.12 0 0 0 1 3zm17-5H3a1 1 0 0 1-1-1v-3h44v3a1 1 0 0 1-1 1z"/><path d="M5 29h38a1 1 0 0 0 1-1V5a1 1 0 0 0-1-1H5a1 1 0 0 0-1 1v23a1 1 0 0 0 1 1zM6 6h36v21H6zM24.71 34.29A1 1 0 1 0 24 36a1 1 0 0 0 .71-1.71z"/></svg>